<?xml version="1.0" encoding="utf-8"?>
<!-- Generator: Adobe Illustrator 25.1.0, SVG Export Plug-In . SVG Version: 6.00 Build 0)  -->
<svg version="1.2" baseProfile="tiny" id="Layer_1" xmlns="http://www.w3.org/2000/svg" xmlns:xlink="http://www.w3.org/1999/xlink"
	 x="0px" y="0px" viewBox="0 0 1080 360" overflow="visible" xml:space="preserve">
<rect x="27" y="63" fill="#BFBFBF" stroke="#000000" width="207" height="207"/>
<rect x="234" y="63" fill="#404040" stroke="#000000" width="207" height="207"/>
<rect x="441" y="63" fill="#BFBFBF" stroke="#000000" width="207" height="207"/>
<rect x="855" y="63" fill="#BFBFBF" stroke="#000000" width="207" height="207"/>
<rect x="648" y="63" fill="#404040" stroke="#000000" width="207" height="207"/>
<g>
	<path fill="none" stroke="#000000" stroke-width="3" stroke-linecap="round" stroke-linejoin="round" d="M751.5,229.5
		c0,4.97-4.03,9-9,9"/>
	<path fill="none" stroke="#000000" stroke-width="3" stroke-linecap="round" stroke-linejoin="round" d="M742.5,238.5
		c-4.97,0-9-4.03-9-9"/>
</g>
<path fill="none" stroke="#000000" stroke-width="3" stroke-linecap="round" stroke-linejoin="round" d="M409.5,157.5
	c4.97,0,9,4.03,9,9"/>
<line fill="none" stroke="#000000" stroke-width="3" stroke-linecap="round" stroke-linejoin="round" x1="670.5" y1="229.5" x2="706.5" y2="229.5"/>
<line fill="none" stroke="#000000" stroke-width="3" stroke-linecap="round" stroke-linejoin="round" x1="463.5" y1="166.5" x2="499.5" y2="166.5"/>
<line fill="none" stroke="#000000" stroke-width="3" stroke-linecap="round" stroke-linejoin="round" x1="256.5" y1="103.5" x2="292.5" y2="103.5"/>
<line fill="none" stroke="#000000" stroke-width="3" stroke-linecap="round" stroke-linejoin="round" x1="382.5" y1="103.5" x2="418.5" y2="103.5"/>
<line fill="none" stroke="#000000" stroke-width="3" stroke-linecap="round" stroke-linejoin="round" x1="589.5" y1="166.5" x2="625.5" y2="166.5"/>
<line fill="none" stroke="#000000" stroke-width="3" stroke-linecap="round" stroke-linejoin="round" x1="796.5" y1="229.5" x2="832.5" y2="229.5"/>
<line fill="none" stroke="#000000" stroke-width="3" stroke-linecap="round" stroke-linejoin="round" x1="463.5" y1="229.5" x2="625.5" y2="229.5"/>
<line fill="none" stroke="#000000" stroke-width="3" stroke-linecap="round" stroke-linejoin="round" x1="256.5" y1="166.5" x2="418.5" y2="166.5"/>
<line fill="none" stroke="#000000" stroke-width="3" stroke-linecap="round" stroke-linejoin="round" x1="49.5" y1="103.5" x2="211.5" y2="103.5"/>
<line fill="none" stroke="#000000" stroke-width="3" stroke-linecap="round" stroke-linejoin="round" x1="463.5" y1="103.5" x2="625.5" y2="103.5"/>
<g>
	<path fill="none" stroke="#000000" stroke-width="3" stroke-linecap="round" stroke-linejoin="round" d="M625.5,103.5
		c24.87,0,45,20.13,45,45"/>
	
		<line fill="none" stroke="#000000" stroke-width="3" stroke-linecap="round" stroke-linejoin="round" x1="670.5" y1="148.5" x2="670.5" y2="166.5"/>
</g>
<line fill="none" stroke="#000000" stroke-width="3" stroke-linecap="round" stroke-linejoin="round" x1="670.5" y1="166.5" x2="832.5" y2="166.5"/>
<g>
	<path fill="none" stroke="#000000" stroke-width="3" stroke-linecap="round" stroke-linejoin="round" d="M832.5,166.5
		c24.87,0,45,20.13,45,45"/>
	
		<line fill="none" stroke="#000000" stroke-width="3" stroke-linecap="round" stroke-linejoin="round" x1="877.5" y1="211.5" x2="877.5" y2="229.5"/>
</g>
<line fill="none" stroke="#000000" stroke-width="3" stroke-linecap="round" stroke-linejoin="round" x1="877.5" y1="229.5" x2="1039.5" y2="229.5"/>
<g>
	<path fill="none" stroke="#000000" stroke-width="3" stroke-linecap="round" stroke-linejoin="round" d="M769.5,229.5
		c0,9.95-8.05,18-18,18"/>
	<path fill="none" stroke="#000000" stroke-width="3" stroke-linecap="round" stroke-linejoin="round" d="M688.5,247.5
		c-9.95,0-18-8.05-18-18"/>
	
		<line fill="none" stroke="#000000" stroke-width="3" stroke-linecap="round" stroke-linejoin="round" x1="688.5" y1="247.5" x2="751.5" y2="247.5"/>
</g>
<g>
	<path fill="none" stroke="#000000" stroke-width="3" stroke-linecap="round" stroke-linejoin="round" d="M832.5,229.5
		c0,14.92-12.08,27-27,27"/>
	<path fill="none" stroke="#000000" stroke-width="3" stroke-linecap="round" stroke-linejoin="round" d="M490.5,256.5
		c-14.92,0-27-12.08-27-27"/>
	
		<line fill="none" stroke="#000000" stroke-width="3" stroke-linecap="round" stroke-linejoin="round" x1="805.5" y1="256.5" x2="490.5" y2="256.5"/>
</g>
<g>
	<path fill="none" stroke="#000000" stroke-width="3" stroke-linecap="round" stroke-linejoin="round" d="M319.5,103.5
		c0-4.97,4.03-9,9-9"/>
	<path fill="none" stroke="#000000" stroke-width="3" stroke-linecap="round" stroke-linejoin="round" d="M346.5,94.5
		c4.97,0,9,4.03,9,9"/>
	
		<line fill="none" stroke="#000000" stroke-width="3" stroke-linecap="round" stroke-linejoin="round" x1="328.5" y1="94.5" x2="346.5" y2="94.5"/>
</g>
<g>
	<path fill="none" stroke="#000000" stroke-width="3" stroke-linecap="round" stroke-linejoin="round" d="M292.5,103.5
		c0-9.95,8.05-18,18-18"/>
	<path fill="none" stroke="#000000" stroke-width="3" stroke-linecap="round" stroke-linejoin="round" d="M364.5,85.5
		c9.95,0,18,8.05,18,18"/>
	
		<line fill="none" stroke="#000000" stroke-width="3" stroke-linecap="round" stroke-linejoin="round" x1="310.5" y1="85.5" x2="364.5" y2="85.5"/>
</g>
<g>
	<path fill="none" stroke="#000000" stroke-width="3" stroke-linecap="round" stroke-linejoin="round" d="M211.5,103.5
		c0-14.92,12.08-27,27-27"/>
	<path fill="none" stroke="#000000" stroke-width="3" stroke-linecap="round" stroke-linejoin="round" d="M436.5,76.5
		c14.92,0,27,12.08,27,27"/>
	
		<line fill="none" stroke="#000000" stroke-width="3" stroke-linecap="round" stroke-linejoin="round" x1="238.5" y1="76.5" x2="436.5" y2="76.5"/>
</g>
<g>
	<path fill="none" stroke="#000000" stroke-width="3" stroke-linecap="round" stroke-linejoin="round" d="M616.5,220.5
		c4.97,0,9,4.03,9,9"/>
	<path fill="none" stroke="#000000" stroke-width="3" stroke-linecap="round" stroke-linejoin="round" d="M310.5,220.5
		c-29.85,0-54-24.15-54-54"/>
	
		<line fill="none" stroke="#000000" stroke-width="3" stroke-linecap="round" stroke-linejoin="round" x1="616.5" y1="220.5" x2="310.5" y2="220.5"/>
</g>
<g>
	<path fill="none" stroke="#000000" stroke-width="3" stroke-linecap="round" stroke-linejoin="round" d="M481.5,148.5
		c9.95,0,18,8.05,18,18"/>
	
		<line fill="none" stroke="#000000" stroke-width="3" stroke-linecap="round" stroke-linejoin="round" x1="481.5" y1="148.5" x2="301.5" y2="148.5"/>
	<path fill="none" stroke="#000000" stroke-width="3" stroke-linecap="round" stroke-linejoin="round" d="M301.5,148.5
		c-24.87,0-45-20.13-45-45"/>
</g>
<g>
	<path fill="none" stroke="#000000" stroke-width="3" stroke-linecap="round" stroke-linejoin="round" d="M373.5,121.5
		c-9.95,0-18-8.05-18-18"/>
	
		<line fill="none" stroke="#000000" stroke-width="3" stroke-linecap="round" stroke-linejoin="round" x1="373.5" y1="121.5" x2="517.5" y2="121.5"/>
	<path fill="none" stroke="#000000" stroke-width="3" stroke-linecap="round" stroke-linejoin="round" d="M517.5,121.5
		c24.87,0,45,20.13,45,45"/>
</g>
<g>
	<path fill="none" stroke="#000000" stroke-width="3" stroke-linecap="round" stroke-linejoin="round" d="M364.5,130.5
		c-14.92,0-27-12.08-27-27"/>
	
		<line fill="none" stroke="#000000" stroke-width="3" stroke-linecap="round" stroke-linejoin="round" x1="364.5" y1="130.5" x2="508.5" y2="130.5"/>
	<path fill="none" stroke="#000000" stroke-width="3" stroke-linecap="round" stroke-linejoin="round" d="M508.5,130.5
		c19.9,0,36,16.1,36,36"/>
</g>
<g>
	<path fill="none" stroke="#000000" stroke-width="3" stroke-linecap="round" stroke-linejoin="round" d="M571.5,193.5
		c-14.92,0-27-12.08-27-27"/>
	
		<line fill="none" stroke="#000000" stroke-width="3" stroke-linecap="round" stroke-linejoin="round" x1="571.5" y1="193.5" x2="715.5" y2="193.5"/>
	<path fill="none" stroke="#000000" stroke-width="3" stroke-linecap="round" stroke-linejoin="round" d="M715.5,193.5
		c19.9,0,36,16.1,36,36"/>
</g>
<g>
	<path fill="none" stroke="#000000" stroke-width="3" stroke-linecap="round" stroke-linejoin="round" d="M580.5,184.5
		c-9.95,0-18-8.05-18-18"/>
	
		<line fill="none" stroke="#000000" stroke-width="3" stroke-linecap="round" stroke-linejoin="round" x1="580.5" y1="184.5" x2="724.5" y2="184.5"/>
	<path fill="none" stroke="#000000" stroke-width="3" stroke-linecap="round" stroke-linejoin="round" d="M724.5,184.5
		c24.87,0,45,20.13,45,45"/>
</g>
<g>
	<path fill="none" stroke="#000000" stroke-width="3" stroke-linecap="round" stroke-linejoin="round" d="M499.5,139.5
		c14.92,0,27,12.08,27,27"/>
	
		<line fill="none" stroke="#000000" stroke-width="3" stroke-linecap="round" stroke-linejoin="round" x1="499.5" y1="139.5" x2="355.5" y2="139.5"/>
	<path fill="none" stroke="#000000" stroke-width="3" stroke-linecap="round" stroke-linejoin="round" d="M355.5,139.5
		c-19.9,0-36-16.1-36-36"/>
</g>
<g>
	<path fill="none" stroke="#000000" stroke-width="3" stroke-linecap="round" stroke-linejoin="round" d="M706.5,202.5
		c14.92,0,27,12.08,27,27"/>
	
		<line fill="none" stroke="#000000" stroke-width="3" stroke-linecap="round" stroke-linejoin="round" x1="706.5" y1="202.5" x2="562.5" y2="202.5"/>
	<path fill="none" stroke="#000000" stroke-width="3" stroke-linecap="round" stroke-linejoin="round" d="M562.5,202.5
		c-19.9,0-36-16.1-36-36"/>
</g>
<g>
	<path fill="none" stroke="#000000" stroke-width="3" stroke-linecap="round" stroke-linejoin="round" d="M688.5,211.5
		c9.95,0,18,8.05,18,18"/>
	
		<line fill="none" stroke="#000000" stroke-width="3" stroke-linecap="round" stroke-linejoin="round" x1="688.5" y1="211.5" x2="508.5" y2="211.5"/>
	<path fill="none" stroke="#000000" stroke-width="3" stroke-linecap="round" stroke-linejoin="round" d="M508.5,211.5
		c-24.87,0-45-20.13-45-45"/>
</g>
<g>
	<path fill="none" stroke="#000000" stroke-width="3" stroke-linecap="round" stroke-linejoin="round" d="M409.5,157.5
		c4.97,0,9,4.03,9,9"/>
	<path fill="none" stroke="#000000" stroke-width="3" stroke-linecap="round" stroke-linejoin="round" d="M103.5,157.5
		c-29.85,0-54-24.15-54-54"/>
	
		<line fill="none" stroke="#000000" stroke-width="3" stroke-linecap="round" stroke-linejoin="round" x1="409.5" y1="157.5" x2="103.5" y2="157.5"/>
</g>
<g>
	<path fill="none" stroke="#000000" stroke-width="3" stroke-linecap="round" stroke-linejoin="round" d="M427.5,112.5
		c-4.97,0-9-4.03-9-9"/>
	<path fill="none" stroke="#000000" stroke-width="3" stroke-linecap="round" stroke-linejoin="round" d="M535.5,112.5
		c29.85,0,54,24.15,54,54"/>
	
		<line fill="none" stroke="#000000" stroke-width="3" stroke-linecap="round" stroke-linejoin="round" x1="427.5" y1="112.5" x2="535.5" y2="112.5"/>
</g>
<g>
	<path fill="none" stroke="#000000" stroke-width="3" stroke-linecap="round" stroke-linejoin="round" d="M634.5,175.5
		c-4.97,0-9-4.03-9-9"/>
	<path fill="none" stroke="#000000" stroke-width="3" stroke-linecap="round" stroke-linejoin="round" d="M742.5,175.5
		c29.85,0,54,24.15,54,54"/>
	
		<line fill="none" stroke="#000000" stroke-width="3" stroke-linecap="round" stroke-linejoin="round" x1="634.5" y1="175.5" x2="742.5" y2="175.5"/>
</g>
<g>
	<path fill="none" stroke="#FFFFFF" stroke-linecap="round" stroke-linejoin="round" d="M364.5,130.5c-14.92,0-27-12.08-27-27"/>
	<line fill="none" stroke="#FFFFFF" stroke-linecap="round" stroke-linejoin="round" x1="364.5" y1="130.5" x2="508.5" y2="130.5"/>
	<path fill="none" stroke="#FFFFFF" stroke-linecap="round" stroke-linejoin="round" d="M508.5,130.5c19.9,0,36,16.1,36,36"/>
</g>
<g>
	<g>
		<g>
			<rect x="540" y="162" fill="#00FF00" stroke="#000000" width="9" height="9"/>
			<rect x="522" y="162" fill="#1FFF00" stroke="#000000" width="9" height="9"/>
			<rect x="558" y="162" fill="#00FF1F" stroke="#000000" width="9" height="9"/>
		</g>
		<g>
			<rect x="477" y="162" fill="#3FFF00" stroke="#000000" width="9" height="9"/>
			<rect x="459" y="162" fill="#3FFF00" stroke="#000000" width="9" height="9"/>
			<rect x="495" y="162" fill="#3FFF00" stroke="#000000" width="9" height="9"/>
		</g>
		<g>
			<rect x="603" y="162" fill="#00FF3F" stroke="#000000" width="9" height="9"/>
			<rect x="585" y="162" fill="#00FF3F" stroke="#000000" width="9" height="9"/>
			<rect x="621" y="162" fill="#00FF3F" stroke="#000000" width="9" height="9"/>
		</g>
	</g>
	<g>
		<g>
			<rect x="333" y="162" fill="#7FFF00" stroke="#000000" width="9" height="9"/>
			<rect x="315" y="162" fill="#7FFF00" stroke="#000000" width="9" height="9"/>
			<rect x="351" y="162" fill="#7FFF00" stroke="#000000" width="9" height="9"/>
		</g>
		<g>
			<rect x="270" y="162" fill="#7FFF00" stroke="#000000" width="9" height="9"/>
			<rect x="252" y="162" fill="#7FFF00" stroke="#000000" width="9" height="9"/>
			<rect x="288" y="162" fill="#7FFF00" stroke="#000000" width="9" height="9"/>
		</g>
		<g>
			<rect x="396" y="162" fill="#7FFF00" stroke="#000000" width="9" height="9"/>
			<rect x="378" y="162" fill="#7FFF00" stroke="#000000" width="9" height="9"/>
			<rect x="414" y="162" fill="#7FFF00" stroke="#000000" width="9" height="9"/>
		</g>
	</g>
	<g>
		<g>
			<rect x="747" y="162" fill="#00FF7F" stroke="#000000" width="9" height="9"/>
			<rect x="729" y="162" fill="#00FF7F" stroke="#000000" width="9" height="9"/>
			<rect x="765" y="162" fill="#00FF7F" stroke="#000000" width="9" height="9"/>
		</g>
		<g>
			<rect x="684" y="162" fill="#00FF7F" stroke="#000000" width="9" height="9"/>
			<rect x="666" y="162" fill="#00FF7F" stroke="#000000" width="9" height="9"/>
			<rect x="702" y="162" fill="#00FF7F" stroke="#000000" width="9" height="9"/>
		</g>
		<g>
			<rect x="810" y="162" fill="#00FF7F" stroke="#000000" width="9" height="9"/>
			<rect x="792" y="162" fill="#00FF7F" stroke="#000000" width="9" height="9"/>
			<rect x="828" y="162" fill="#00FF7F" stroke="#000000" width="9" height="9"/>
		</g>
	</g>
</g>
<g>
	<g>
		<g>
			<rect x="333" y="99" fill="#FF7F00" stroke="#000000" width="9" height="9"/>
			<rect x="315" y="99" fill="#FF5F00" stroke="#000000" width="9" height="9"/>
			<rect x="351" y="99" fill="#FF9F00" stroke="#000000" width="9" height="9"/>
		</g>
		<g>
			<rect x="270" y="99" fill="#FF3F00" stroke="#000000" width="9" height="9"/>
			<rect x="252" y="99" fill="#FF3F00" stroke="#000000" width="9" height="9"/>
			<rect x="288" y="99" fill="#FF3F00" stroke="#000000" width="9" height="9"/>
		</g>
		<g>
			<rect x="396" y="99" fill="#FFBF00" stroke="#000000" width="9" height="9"/>
			<rect x="378" y="99" fill="#FFBF00" stroke="#000000" width="9" height="9"/>
			<rect x="414" y="99" fill="#FFBF00" stroke="#000000" width="9" height="9"/>
		</g>
	</g>
	<g>
		<g>
			<rect x="126" y="99" fill="#FF0000" stroke="#000000" width="9" height="9"/>
			<rect x="108" y="99" fill="#FF0000" stroke="#000000" width="9" height="9"/>
			<rect x="144" y="99" fill="#FF0000" stroke="#000000" width="9" height="9"/>
		</g>
		<g>
			<rect x="63" y="99" fill="#FF0000" stroke="#000000" width="9" height="9"/>
			<rect x="45" y="99" fill="#FF0000" stroke="#000000" width="9" height="9"/>
			<rect x="81" y="99" fill="#FF0000" stroke="#000000" width="9" height="9"/>
		</g>
		<g>
			<rect x="189" y="99" fill="#FF0000" stroke="#000000" width="9" height="9"/>
			<rect x="171" y="99" fill="#FF0000" stroke="#000000" width="9" height="9"/>
			<rect x="207" y="99" fill="#FF0000" stroke="#000000" width="9" height="9"/>
		</g>
	</g>
	<g>
		<g>
			<rect x="540" y="99" fill="#FFFF00" stroke="#000000" width="9" height="9"/>
			<rect x="522" y="99" fill="#FFFF00" stroke="#000000" width="9" height="9"/>
			<rect x="558" y="99" fill="#FFFF00" stroke="#000000" width="9" height="9"/>
		</g>
		<g>
			<rect x="477" y="99" fill="#FFFF00" stroke="#000000" width="9" height="9"/>
			<rect x="459" y="99" fill="#FFFF00" stroke="#000000" width="9" height="9"/>
			<rect x="495" y="99" fill="#FFFF00" stroke="#000000" width="9" height="9"/>
		</g>
		<g>
			<rect x="603" y="99" fill="#FFFF00" stroke="#000000" width="9" height="9"/>
			<rect x="585" y="99" fill="#FFFF00" stroke="#000000" width="9" height="9"/>
			<rect x="621" y="99" fill="#FFFF00" stroke="#000000" width="9" height="9"/>
		</g>
	</g>
</g>
<g>
	<g>
		<g>
			<rect x="747" y="225" fill="#007FFF" stroke="#000000" width="9" height="9"/>
			<rect x="729" y="225" fill="#009FFF" stroke="#000000" width="9" height="9"/>
			<rect x="765" y="225" fill="#005FFF" stroke="#000000" width="9" height="9"/>
		</g>
		<g>
			<rect x="684" y="225" fill="#00BFFF" stroke="#000000" width="9" height="9"/>
			<rect x="666" y="225" fill="#00BFFF" stroke="#000000" width="9" height="9"/>
			<rect x="702" y="225" fill="#00BFFF" stroke="#000000" width="9" height="9"/>
		</g>
		<g>
			<rect x="810" y="225" fill="#003FFF" stroke="#000000" width="9" height="9"/>
			<rect x="792" y="225" fill="#003FFF" stroke="#000000" width="9" height="9"/>
			<rect x="828" y="225" fill="#003FFF" stroke="#000000" width="9" height="9"/>
		</g>
	</g>
	<g>
		<g>
			<rect x="540" y="225" fill="#00FFFF" stroke="#000000" width="9" height="9"/>
			<rect x="522" y="225" fill="#00FFFF" stroke="#000000" width="9" height="9"/>
			<rect x="558" y="225" fill="#00FFFF" stroke="#000000" width="9" height="9"/>
		</g>
		<g>
			<rect x="477" y="225" fill="#00FFFF" stroke="#000000" width="9" height="9"/>
			<rect x="459" y="225" fill="#00FFFF" stroke="#000000" width="9" height="9"/>
			<rect x="495" y="225" fill="#00FFFF" stroke="#000000" width="9" height="9"/>
		</g>
		<g>
			<rect x="603" y="225" fill="#00FFFF" stroke="#000000" width="9" height="9"/>
			<rect x="585" y="225" fill="#00FFFF" stroke="#000000" width="9" height="9"/>
			<rect x="621" y="225" fill="#00FFFF" stroke="#000000" width="9" height="9"/>
		</g>
	</g>
	<g>
		<g>
			<rect x="954" y="225" fill="#0000FF" stroke="#000000" width="9" height="9"/>
			<rect x="936" y="225" fill="#0000FF" stroke="#000000" width="9" height="9"/>
			<rect x="972" y="225" fill="#0000FF" stroke="#000000" width="9" height="9"/>
		</g>
		<g>
			<rect x="891" y="225" fill="#0000FF" stroke="#000000" width="9" height="9"/>
			<rect x="873" y="225" fill="#0000FF" stroke="#000000" width="9" height="9"/>
			<rect x="909" y="225" fill="#0000FF" stroke="#000000" width="9" height="9"/>
		</g>
		<g>
			<rect x="1017" y="225" fill="#0000FF" stroke="#000000" width="9" height="9"/>
			<rect x="999" y="225" fill="#0000FF" stroke="#000000" width="9" height="9"/>
			<rect x="1035" y="225" fill="#0000FF" stroke="#000000" width="9" height="9"/>
		</g>
	</g>
</g>
<line fill="none" stroke="#000000" x1="234" y1="63" x2="234" y2="27"/>
<g>
	<path d="M157.9,20.19h-0.02l-1.36,0.73l-0.2-0.8l1.7-0.91h0.9V27h-1.02V20.19z"/>
	<path d="M161.95,25.93c0.32,0.19,0.88,0.41,1.4,0.41c0.76,0,1.12-0.37,1.12-0.86c0-0.5-0.3-0.77-1.07-1.06
		c-1.06-0.38-1.55-0.95-1.55-1.64c0-0.94,0.77-1.7,2-1.7c0.59,0,1.1,0.16,1.42,0.36l-0.25,0.77c-0.23-0.14-0.65-0.35-1.19-0.35
		c-0.62,0-0.96,0.36-0.96,0.79c0,0.48,0.34,0.7,1.09,1c1,0.37,1.52,0.88,1.52,1.74c0,1.03-0.8,1.75-2.16,1.75
		c-0.64,0-1.22-0.17-1.63-0.41L161.95,25.93z"/>
	<path d="M168.12,19.8v1.39h1.51V22h-1.51v3.13c0,0.72,0.2,1.13,0.79,1.13c0.29,0,0.46-0.02,0.61-0.07l0.05,0.8
		c-0.2,0.07-0.53,0.14-0.94,0.14c-0.49,0-0.89-0.17-1.14-0.44c-0.29-0.32-0.41-0.84-0.41-1.52V22h-0.9v-0.8h0.9v-1.08L168.12,19.8z"
		/>
	<path d="M179.57,26.64c-0.47,0.18-1.4,0.44-2.49,0.44c-1.22,0-2.23-0.31-3.02-1.07c-0.7-0.67-1.13-1.75-1.13-3.01
		c0-2.41,1.67-4.17,4.38-4.17c0.94,0,1.68,0.2,2.03,0.37l-0.26,0.85c-0.43-0.2-0.97-0.35-1.79-0.35c-1.97,0-3.25,1.22-3.25,3.25
		c0,2.05,1.22,3.26,3.12,3.26c0.68,0,1.15-0.1,1.39-0.22v-2.41h-1.63v-0.84h2.66V26.64z"/>
	<path d="M185.29,25.61c0,0.5,0.02,1,0.08,1.39h-0.95l-0.08-0.73h-0.04c-0.32,0.46-0.95,0.86-1.77,0.86c-1.18,0-1.77-0.83-1.77-1.67
		c0-1.4,1.25-2.17,3.49-2.16v-0.12c0-0.47-0.13-1.34-1.32-1.33c-0.55,0-1.12,0.16-1.52,0.43l-0.24-0.71c0.48-0.3,1.19-0.5,1.92-0.5
		c1.77,0,2.21,1.21,2.21,2.36V25.61z M184.27,24.04c-1.15-0.02-2.46,0.18-2.46,1.31c0,0.7,0.46,1.01,0.98,1.01
		c0.77,0,1.26-0.48,1.43-0.97c0.04-0.12,0.05-0.24,0.05-0.34V24.04z"/>
	<path d="M187,18.48h1.06V27H187V18.48z"/>
	<path d="M193.91,25.61c0,0.5,0.02,1,0.08,1.39h-0.95l-0.08-0.73h-0.04c-0.32,0.46-0.95,0.86-1.77,0.86c-1.18,0-1.77-0.83-1.77-1.67
		c0-1.4,1.25-2.17,3.49-2.16v-0.12c0-0.47-0.13-1.34-1.32-1.33c-0.55,0-1.12,0.16-1.52,0.43l-0.24-0.71c0.48-0.3,1.19-0.5,1.92-0.5
		c1.77,0,2.21,1.21,2.21,2.36V25.61z M192.89,24.04c-1.15-0.02-2.46,0.18-2.46,1.31c0,0.7,0.46,1.01,0.98,1.01
		c0.77,0,1.26-0.48,1.43-0.97c0.04-0.12,0.05-0.24,0.05-0.34V24.04z"/>
	<path d="M199.75,26.8c-0.28,0.13-0.89,0.34-1.67,0.34c-1.75,0-2.89-1.19-2.89-2.96c0-1.79,1.22-3.09,3.12-3.09
		c0.62,0,1.18,0.16,1.46,0.31l-0.24,0.8c-0.25-0.13-0.65-0.28-1.22-0.28c-1.33,0-2.05,1-2.05,2.19c0,1.34,0.86,2.17,2.02,2.17
		c0.6,0,1-0.14,1.3-0.28L199.75,26.8z"/>
	<path d="M202.42,19.8v1.39h1.51V22h-1.51v3.13c0,0.72,0.2,1.13,0.79,1.13c0.29,0,0.46-0.02,0.61-0.07l0.05,0.8
		c-0.2,0.07-0.53,0.14-0.94,0.14c-0.49,0-0.89-0.17-1.14-0.44c-0.29-0.32-0.41-0.84-0.41-1.52V22h-0.9v-0.8h0.9v-1.08L202.42,19.8z"
		/>
	<path d="M206.29,19.56c0,0.36-0.25,0.65-0.67,0.65c-0.38,0-0.64-0.29-0.64-0.65s0.26-0.66,0.66-0.66
		C206.03,18.9,206.29,19.19,206.29,19.56z M205.12,27v-5.8h1.06V27H205.12z"/>
	<path d="M212.06,26.8c-0.28,0.13-0.89,0.34-1.67,0.34c-1.75,0-2.89-1.19-2.89-2.96c0-1.79,1.22-3.09,3.12-3.09
		c0.62,0,1.18,0.16,1.46,0.31l-0.24,0.8c-0.25-0.13-0.65-0.28-1.22-0.28c-1.33,0-2.05,1-2.05,2.19c0,1.34,0.86,2.17,2.02,2.17
		c0.6,0,1-0.14,1.3-0.28L212.06,26.8z"/>
	<path d="M216.77,27l-2.05-8.08h1.1l0.96,4.09c0.24,1.01,0.46,2.01,0.6,2.79h0.02c0.13-0.8,0.38-1.76,0.66-2.81l1.08-4.08h1.09
		l0.98,4.1c0.23,0.96,0.44,1.92,0.56,2.77h0.02c0.17-0.89,0.4-1.79,0.65-2.79l1.07-4.08h1.07L222.3,27h-1.09l-1.02-4.21
		c-0.25-1.03-0.42-1.82-0.53-2.64h-0.02c-0.13,0.8-0.32,1.6-0.62,2.64L217.86,27H216.77z"/>
	<path d="M229.25,25.61c0,0.5,0.02,1,0.08,1.39h-0.95l-0.08-0.73h-0.04c-0.32,0.46-0.95,0.86-1.77,0.86c-1.18,0-1.77-0.83-1.77-1.67
		c0-1.4,1.25-2.17,3.49-2.16v-0.12c0-0.47-0.13-1.34-1.32-1.33c-0.55,0-1.12,0.16-1.52,0.43l-0.24-0.71c0.48-0.3,1.19-0.5,1.92-0.5
		c1.77,0,2.21,1.21,2.21,2.36V25.61z M228.23,24.04c-1.15-0.02-2.46,0.18-2.46,1.31c0,0.7,0.46,1.01,0.98,1.01
		c0.77,0,1.26-0.48,1.43-0.97c0.04-0.12,0.05-0.24,0.05-0.34V24.04z"/>
	<path d="M230.95,23.01c0-0.68-0.01-1.27-0.05-1.81h0.92l0.05,1.15h0.04c0.26-0.78,0.91-1.27,1.62-1.27c0.11,0,0.19,0.01,0.29,0.02
		v1c-0.11-0.02-0.22-0.02-0.36-0.02c-0.74,0-1.27,0.55-1.42,1.34c-0.02,0.14-0.04,0.32-0.04,0.49V27h-1.06V23.01z"/>
</g>
<g>
	<path d="M284.17,285.46l-0.84,2.54h-1.08l2.76-8.08h1.25l2.76,8.08h-1.12l-0.86-2.54H284.17z M286.83,284.64l-0.8-2.33
		c-0.18-0.53-0.3-1.01-0.42-1.47h-0.02c-0.12,0.47-0.24,0.97-0.41,1.46l-0.79,2.34H286.83z"/>
	<path d="M290.14,284.01c0-0.68-0.01-1.27-0.05-1.81h0.92l0.05,1.15h0.04c0.26-0.78,0.91-1.27,1.62-1.27c0.11,0,0.19,0.01,0.29,0.02
		v1c-0.11-0.02-0.22-0.02-0.36-0.02c-0.74,0-1.27,0.55-1.42,1.34c-0.02,0.14-0.04,0.32-0.04,0.49V288h-1.06V284.01z"/>
	<path d="M299.19,285.05c0,2.15-1.5,3.08-2.89,3.08c-1.56,0-2.78-1.15-2.78-2.99c0-1.93,1.28-3.07,2.88-3.07
		C298.07,282.08,299.19,283.29,299.19,285.05z M294.6,285.11c0,1.27,0.72,2.23,1.75,2.23c1.01,0,1.76-0.95,1.76-2.25
		c0-0.98-0.49-2.22-1.74-2.22C295.14,282.87,294.6,284.02,294.6,285.11z"/>
	<path d="M305.39,286.4c0,0.61,0.01,1.14,0.05,1.6h-0.94l-0.06-0.95h-0.02c-0.26,0.47-0.89,1.08-1.92,1.08c-0.91,0-2-0.52-2-2.54
		v-3.39h1.06v3.2c0,1.1,0.35,1.86,1.3,1.86c0.71,0,1.2-0.49,1.39-0.97c0.06-0.14,0.1-0.34,0.1-0.54v-3.55h1.06V286.4z"/>
	<path d="M307.14,283.77c0-0.61-0.01-1.09-0.05-1.57h0.94l0.06,0.96h0.02c0.29-0.54,0.96-1.08,1.92-1.08c0.8,0,2.05,0.48,2.05,2.47
		V288h-1.06v-3.35c0-0.94-0.35-1.71-1.34-1.71c-0.68,0-1.22,0.49-1.42,1.08c-0.05,0.13-0.07,0.31-0.07,0.49V288h-1.06V283.77z"/>
	<path d="M318.8,279.48v7.02c0,0.52,0.02,1.1,0.05,1.5h-0.94l-0.05-1.01h-0.04c-0.31,0.65-1.01,1.14-1.96,1.14
		c-1.4,0-2.49-1.19-2.49-2.95c-0.01-1.93,1.2-3.11,2.6-3.11c0.9,0,1.49,0.42,1.75,0.88h0.02v-3.47H318.8z M317.76,284.56
		c0-0.13-0.01-0.31-0.05-0.44c-0.16-0.66-0.73-1.21-1.52-1.21c-1.09,0-1.74,0.96-1.74,2.23c0,1.17,0.59,2.15,1.72,2.15
		c0.71,0,1.35-0.48,1.55-1.26c0.04-0.14,0.05-0.29,0.05-0.46V284.56z"/>
	<path d="M325.07,281.19h-0.02l-1.36,0.73l-0.2-0.8l1.7-0.91h0.9v7.8h-1.02V281.19z"/>
	<path d="M328.93,288v-0.65l0.83-0.8c1.99-1.89,2.9-2.9,2.9-4.08c0-0.79-0.37-1.52-1.54-1.52c-0.71,0-1.3,0.36-1.65,0.66l-0.34-0.74
		c0.53-0.44,1.31-0.79,2.19-0.79c1.68,0,2.39,1.15,2.39,2.27c0,1.44-1.04,2.6-2.69,4.19l-0.61,0.58v0.02h3.49V288H328.93z"/>
	<path d="M334.74,289.49c0.26-0.72,0.59-2,0.72-2.88l1.18-0.12c-0.29,1.02-0.82,2.35-1.15,2.92L334.74,289.49z"/>
	<path d="M342.76,284.02c0,2.65-1,4.11-2.71,4.11c-1.52,0-2.57-1.43-2.59-4.01c0-2.63,1.14-4.05,2.72-4.05
		C341.82,280.07,342.76,281.54,342.76,284.02z M338.53,284.14c0,2.03,0.62,3.18,1.58,3.18c1.07,0,1.58-1.26,1.58-3.25
		c0-1.92-0.48-3.18-1.58-3.18C339.2,280.89,338.53,282.02,338.53,284.14z"/>
	<path d="M348.92,284.02c0,2.65-1,4.11-2.71,4.11c-1.52,0-2.57-1.43-2.59-4.01c0-2.63,1.14-4.05,2.72-4.05
		C347.97,280.07,348.92,281.54,348.92,284.02z M344.69,284.14c0,2.03,0.62,3.18,1.58,3.18c1.07,0,1.58-1.26,1.58-3.25
		c0-1.92-0.48-3.18-1.58-3.18C345.36,280.89,344.69,282.02,344.69,284.14z"/>
	<path d="M355.08,284.02c0,2.65-1,4.11-2.71,4.11c-1.52,0-2.57-1.43-2.59-4.01c0-2.63,1.14-4.05,2.72-4.05
		C354.13,280.07,355.08,281.54,355.08,284.02z M350.84,284.14c0,2.03,0.62,3.18,1.58,3.18c1.07,0,1.58-1.26,1.58-3.25
		c0-1.92-0.48-3.18-1.58-3.18C351.51,280.89,350.84,282.02,350.84,284.14z"/>
	<path d="M359.3,282.2l1.26,3.43c0.14,0.38,0.29,0.84,0.38,1.19h0.02c0.11-0.35,0.23-0.79,0.37-1.21l1.15-3.41h1.12l-1.58,4.14
		c-0.76,1.99-1.27,3-1.99,3.63c-0.53,0.44-1.03,0.62-1.29,0.67l-0.26-0.88c0.26-0.08,0.61-0.25,0.92-0.52
		c0.29-0.23,0.64-0.64,0.89-1.17c0.05-0.11,0.08-0.19,0.08-0.25c0-0.06-0.02-0.14-0.08-0.28l-2.13-5.35H359.3z"/>
	<path d="M365.04,285.29c0.02,1.43,0.92,2.02,1.99,2.02c0.76,0,1.22-0.13,1.61-0.3l0.19,0.76c-0.37,0.17-1.02,0.37-1.94,0.37
		c-1.79,0-2.85-1.19-2.85-2.94s1.03-3.12,2.72-3.12c1.91,0,2.4,1.66,2.4,2.72c0,0.22-0.01,0.37-0.04,0.49H365.04z M368.13,284.53
		c0.01-0.66-0.28-1.7-1.46-1.7c-1.08,0-1.54,0.97-1.62,1.7H368.13z"/>
	<path d="M374.54,286.61c0,0.5,0.02,0.99,0.08,1.39h-0.95l-0.08-0.73h-0.04c-0.32,0.46-0.95,0.86-1.77,0.86
		c-1.18,0-1.77-0.83-1.77-1.67c0-1.4,1.25-2.17,3.49-2.16v-0.12c0-0.47-0.13-1.34-1.32-1.33c-0.55,0-1.12,0.16-1.52,0.43l-0.24-0.71
		c0.48-0.3,1.19-0.5,1.92-0.5c1.77,0,2.21,1.21,2.21,2.36V286.61z M373.52,285.04c-1.15-0.02-2.46,0.18-2.46,1.31
		c0,0.7,0.46,1.01,0.98,1.01c0.77,0,1.26-0.48,1.43-0.97c0.04-0.12,0.05-0.24,0.05-0.34V285.04z"/>
	<path d="M376.25,284.01c0-0.68-0.01-1.27-0.05-1.81h0.92l0.05,1.15h0.04c0.26-0.78,0.91-1.27,1.62-1.27c0.11,0,0.19,0.01,0.29,0.02
		v1c-0.11-0.02-0.22-0.02-0.36-0.02c-0.74,0-1.27,0.55-1.42,1.34c-0.02,0.14-0.04,0.32-0.04,0.49V288h-1.06V284.01z"/>
	<path d="M380.03,286.93c0.32,0.19,0.88,0.41,1.4,0.41c0.76,0,1.12-0.37,1.12-0.86c0-0.5-0.3-0.77-1.07-1.05
		c-1.06-0.38-1.55-0.95-1.55-1.64c0-0.94,0.77-1.7,2-1.7c0.59,0,1.1,0.16,1.42,0.36l-0.25,0.77c-0.23-0.14-0.65-0.35-1.19-0.35
		c-0.62,0-0.96,0.36-0.96,0.79c0,0.48,0.34,0.7,1.09,1c1,0.37,1.52,0.88,1.52,1.74c0,1.03-0.8,1.75-2.16,1.75
		c-0.64,0-1.22-0.17-1.63-0.41L380.03,286.93z"/>
</g>
<g>
	<path d="M85.01,285.46L84.17,288h-1.08l2.76-8.08h1.25l2.76,8.08h-1.12l-0.86-2.54H85.01z M87.68,284.64l-0.8-2.33
		c-0.18-0.53-0.3-1.01-0.42-1.47h-0.02c-0.12,0.47-0.24,0.97-0.41,1.46l-0.79,2.34H87.68z"/>
	<path d="M90.98,284.01c0-0.68-0.01-1.27-0.05-1.81h0.92l0.05,1.15h0.04c0.26-0.78,0.91-1.27,1.62-1.27c0.11,0,0.19,0.01,0.29,0.02
		v1c-0.11-0.02-0.22-0.02-0.36-0.02c-0.74,0-1.27,0.55-1.42,1.34c-0.02,0.14-0.04,0.32-0.04,0.49V288h-1.06V284.01z"/>
	<path d="M100.04,285.05c0,2.15-1.5,3.08-2.89,3.08c-1.56,0-2.78-1.15-2.78-2.99c0-1.93,1.28-3.07,2.88-3.07
		C98.91,282.08,100.04,283.29,100.04,285.05z M95.44,285.11c0,1.27,0.72,2.23,1.75,2.23c1.01,0,1.76-0.95,1.76-2.25
		c0-0.98-0.49-2.22-1.74-2.22C95.98,282.87,95.44,284.02,95.44,285.11z"/>
	<path d="M106.23,286.4c0,0.61,0.01,1.14,0.05,1.6h-0.94l-0.06-0.95h-0.02c-0.26,0.47-0.89,1.08-1.92,1.08c-0.91,0-2-0.52-2-2.54
		v-3.39h1.06v3.2c0,1.1,0.35,1.86,1.3,1.86c0.71,0,1.2-0.49,1.39-0.97c0.06-0.14,0.1-0.34,0.1-0.54v-3.55h1.06V286.4z"/>
	<path d="M107.98,283.77c0-0.61-0.01-1.09-0.05-1.57h0.94l0.06,0.96h0.02c0.29-0.54,0.96-1.08,1.92-1.08c0.8,0,2.05,0.48,2.05,2.47
		V288h-1.06v-3.35c0-0.94-0.35-1.71-1.34-1.71c-0.68,0-1.22,0.49-1.42,1.08c-0.05,0.13-0.07,0.31-0.07,0.49V288h-1.06V283.77z"/>
	<path d="M119.64,279.48v7.02c0,0.52,0.02,1.1,0.05,1.5h-0.94l-0.05-1.01h-0.04c-0.31,0.65-1.01,1.14-1.96,1.14
		c-1.4,0-2.49-1.19-2.49-2.95c-0.01-1.93,1.2-3.11,2.6-3.11c0.9,0,1.49,0.42,1.75,0.88h0.02v-3.47H119.64z M118.6,284.56
		c0-0.13-0.01-0.31-0.05-0.44c-0.16-0.66-0.73-1.21-1.52-1.21c-1.09,0-1.74,0.96-1.74,2.23c0,1.17,0.59,2.15,1.72,2.15
		c0.71,0,1.35-0.48,1.55-1.26c0.04-0.14,0.05-0.29,0.05-0.46V284.56z"/>
	<path d="M128.03,286.61c0,0.5,0.02,0.99,0.08,1.39h-0.95l-0.08-0.73h-0.04c-0.32,0.46-0.95,0.86-1.77,0.86
		c-1.18,0-1.77-0.83-1.77-1.67c0-1.4,1.25-2.17,3.49-2.16v-0.12c0-0.47-0.13-1.34-1.32-1.33c-0.55,0-1.12,0.16-1.52,0.43l-0.24-0.71
		c0.48-0.3,1.19-0.5,1.92-0.5c1.77,0,2.21,1.21,2.21,2.36V286.61z M127.01,285.04c-1.15-0.02-2.46,0.18-2.46,1.31
		c0,0.7,0.46,1.01,0.98,1.01c0.77,0,1.26-0.48,1.43-0.97c0.04-0.12,0.05-0.24,0.05-0.34V285.04z"/>
	<path d="M132.28,279.48h1.06V288h-1.06V279.48z"/>
	<path d="M136.29,280.56c0,0.36-0.25,0.65-0.67,0.65c-0.38,0-0.64-0.29-0.64-0.65c0-0.36,0.26-0.66,0.66-0.66
		C136.02,279.9,136.29,280.19,136.29,280.56z M135.11,288v-5.8h1.06v5.8H135.11z"/>
	<path d="M138.03,288v-5h-0.8v-0.8h0.8v-0.28c0-0.82,0.19-1.56,0.67-2.03c0.4-0.38,0.92-0.54,1.42-0.54c0.38,0,0.7,0.08,0.9,0.17
		l-0.14,0.82c-0.16-0.07-0.36-0.13-0.67-0.13c-0.9,0-1.13,0.78-1.13,1.68v0.31h1.4v0.8h-1.4v5H138.03z"/>
	<path d="M141.86,285.29c0.02,1.43,0.92,2.02,1.99,2.02c0.76,0,1.22-0.13,1.61-0.3l0.19,0.76c-0.37,0.17-1.02,0.37-1.94,0.37
		c-1.79,0-2.85-1.19-2.85-2.94s1.03-3.12,2.72-3.12c1.91,0,2.4,1.66,2.4,2.72c0,0.22-0.01,0.37-0.04,0.49H141.86z M144.95,284.53
		c0.01-0.66-0.28-1.7-1.46-1.7c-1.08,0-1.54,0.97-1.62,1.7H144.95z"/>
	<path d="M148.55,280.8v1.39h1.51v0.8h-1.51v3.13c0,0.72,0.2,1.13,0.79,1.13c0.29,0,0.46-0.02,0.61-0.07l0.05,0.8
		c-0.2,0.07-0.53,0.14-0.94,0.14c-0.49,0-0.89-0.17-1.14-0.44c-0.29-0.32-0.41-0.84-0.41-1.52V283h-0.9v-0.8h0.9v-1.08L148.55,280.8
		z"/>
	<path d="M152.43,280.56c0,0.36-0.25,0.65-0.67,0.65c-0.38,0-0.64-0.29-0.64-0.65c0-0.36,0.26-0.66,0.66-0.66
		C152.17,279.9,152.43,280.19,152.43,280.56z M151.25,288v-5.8h1.06v5.8H151.25z"/>
	<path d="M154.06,283.77c0-0.61-0.02-1.09-0.05-1.57h0.92l0.05,0.95h0.04c0.32-0.55,0.86-1.07,1.83-1.07c0.78,0,1.38,0.48,1.63,1.16
		h0.02c0.18-0.34,0.42-0.58,0.66-0.76c0.35-0.26,0.72-0.41,1.27-0.41c0.78,0,1.92,0.5,1.92,2.52V288h-1.03v-3.27
		c0-1.13-0.42-1.79-1.26-1.79c-0.61,0-1.07,0.44-1.26,0.95c-0.05,0.16-0.08,0.34-0.08,0.53V288h-1.03v-3.48
		c0-0.92-0.41-1.58-1.21-1.58c-0.65,0-1.14,0.53-1.31,1.05c-0.06,0.14-0.08,0.34-0.08,0.52V288h-1.03V283.77z"/>
	<path d="M164.66,285.29c0.02,1.43,0.92,2.02,1.99,2.02c0.76,0,1.22-0.13,1.61-0.3l0.19,0.76c-0.37,0.17-1.02,0.37-1.94,0.37
		c-1.79,0-2.85-1.19-2.85-2.94s1.03-3.12,2.72-3.12c1.91,0,2.4,1.66,2.4,2.72c0,0.22-0.01,0.37-0.04,0.49H164.66z M167.75,284.53
		c0.01-0.66-0.28-1.7-1.46-1.7c-1.08,0-1.54,0.97-1.62,1.7H167.75z"/>
</g>
<g>
	<path d="M698.17,285.46l-0.84,2.54h-1.08l2.76-8.08h1.25l2.76,8.08h-1.12l-0.86-2.54H698.17z M700.83,284.64l-0.8-2.33
		c-0.18-0.53-0.3-1.01-0.42-1.47h-0.03c-0.12,0.47-0.24,0.97-0.41,1.46l-0.79,2.34H700.83z"/>
	<path d="M704.14,284.01c0-0.68-0.01-1.27-0.05-1.81h0.92l0.05,1.15h0.04c0.26-0.78,0.91-1.27,1.62-1.27c0.11,0,0.19,0.01,0.29,0.02
		v1c-0.11-0.02-0.22-0.02-0.36-0.02c-0.74,0-1.27,0.55-1.42,1.34c-0.02,0.14-0.04,0.32-0.04,0.49V288h-1.05V284.01z"/>
	<path d="M713.19,285.05c0,2.15-1.5,3.08-2.89,3.08c-1.56,0-2.78-1.15-2.78-2.99c0-1.93,1.28-3.07,2.88-3.07
		C712.07,282.08,713.19,283.29,713.19,285.05z M708.6,285.11c0,1.27,0.72,2.23,1.75,2.23c1.01,0,1.76-0.95,1.76-2.25
		c0-0.98-0.49-2.22-1.74-2.22C709.14,282.87,708.6,284.02,708.6,285.11z"/>
	<path d="M719.39,286.4c0,0.61,0.01,1.14,0.05,1.6h-0.94l-0.06-0.95h-0.02c-0.26,0.47-0.89,1.08-1.92,1.08c-0.91,0-2-0.52-2-2.54
		v-3.39h1.06v3.2c0,1.1,0.35,1.86,1.3,1.86c0.71,0,1.2-0.49,1.39-0.97c0.06-0.14,0.1-0.34,0.1-0.54v-3.55h1.06V286.4z"/>
	<path d="M721.14,283.77c0-0.61-0.01-1.09-0.05-1.57h0.94l0.06,0.96h0.02c0.29-0.54,0.96-1.08,1.92-1.08c0.8,0,2.05,0.48,2.05,2.47
		V288h-1.06v-3.35c0-0.94-0.35-1.71-1.34-1.71c-0.68,0-1.22,0.49-1.42,1.08c-0.05,0.13-0.07,0.31-0.07,0.49V288h-1.05V283.77z"/>
	<path d="M732.8,279.48v7.02c0,0.52,0.02,1.1,0.05,1.5h-0.94l-0.05-1.01h-0.04c-0.31,0.65-1.01,1.14-1.96,1.14
		c-1.4,0-2.49-1.19-2.49-2.95c-0.01-1.93,1.2-3.11,2.6-3.11c0.9,0,1.49,0.42,1.75,0.88h0.02v-3.47H732.8z M731.76,284.56
		c0-0.13-0.01-0.31-0.05-0.44c-0.16-0.66-0.73-1.21-1.52-1.21c-1.09,0-1.74,0.96-1.74,2.23c0,1.17,0.59,2.15,1.72,2.15
		c0.71,0,1.35-0.48,1.55-1.26c0.04-0.14,0.05-0.29,0.05-0.46V284.56z"/>
	<path d="M739.07,281.19h-0.02l-1.36,0.73l-0.2-0.8l1.7-0.91h0.9v7.8h-1.02V281.19z"/>
	<path d="M742.93,288v-0.65l0.83-0.8c1.99-1.89,2.9-2.9,2.9-4.08c0-0.79-0.37-1.52-1.54-1.52c-0.71,0-1.3,0.36-1.66,0.66l-0.34-0.74
		c0.53-0.44,1.31-0.79,2.19-0.79c1.68,0,2.39,1.15,2.39,2.27c0,1.44-1.04,2.6-2.69,4.19l-0.61,0.58v0.02h3.49V288H742.93z"/>
	<path d="M748.74,289.49c0.26-0.72,0.59-2,0.72-2.88l1.18-0.12c-0.29,1.02-0.82,2.35-1.15,2.92L748.74,289.49z"/>
	<path d="M756.76,284.02c0,2.65-1,4.11-2.71,4.11c-1.52,0-2.57-1.43-2.59-4.01c0-2.63,1.14-4.05,2.72-4.05
		C755.82,280.07,756.76,281.54,756.76,284.02z M752.53,284.14c0,2.03,0.62,3.18,1.58,3.18c1.07,0,1.58-1.26,1.58-3.25
		c0-1.92-0.48-3.18-1.58-3.18C753.2,280.89,752.53,282.02,752.53,284.14z"/>
	<path d="M762.92,284.02c0,2.65-1,4.11-2.71,4.11c-1.52,0-2.57-1.43-2.59-4.01c0-2.63,1.14-4.05,2.72-4.05
		C761.97,280.07,762.92,281.54,762.92,284.02z M758.69,284.14c0,2.03,0.62,3.18,1.58,3.18c1.07,0,1.58-1.26,1.58-3.25
		c0-1.92-0.48-3.18-1.58-3.18C759.36,280.89,758.69,282.02,758.69,284.14z"/>
	<path d="M769.08,284.02c0,2.65-1,4.11-2.71,4.11c-1.52,0-2.57-1.43-2.59-4.01c0-2.63,1.14-4.05,2.72-4.05
		C768.13,280.07,769.08,281.54,769.08,284.02z M764.84,284.14c0,2.03,0.62,3.18,1.58,3.18c1.07,0,1.58-1.26,1.58-3.25
		c0-1.92-0.48-3.18-1.58-3.18C765.51,280.89,764.84,282.02,764.84,284.14z"/>
	<path d="M773.3,282.2l1.26,3.43c0.14,0.38,0.29,0.84,0.38,1.19h0.02c0.11-0.35,0.23-0.79,0.37-1.21l1.15-3.41h1.12l-1.58,4.14
		c-0.76,1.99-1.27,3-1.99,3.63c-0.53,0.44-1.03,0.62-1.29,0.67l-0.26-0.88c0.26-0.08,0.61-0.25,0.92-0.52
		c0.29-0.23,0.63-0.64,0.89-1.17c0.05-0.11,0.08-0.19,0.08-0.25c0-0.06-0.02-0.14-0.08-0.28l-2.13-5.35H773.3z"/>
	<path d="M779.04,285.29c0.02,1.43,0.92,2.02,1.99,2.02c0.76,0,1.22-0.13,1.61-0.3l0.19,0.76c-0.37,0.17-1.02,0.37-1.94,0.37
		c-1.79,0-2.85-1.19-2.85-2.94s1.03-3.12,2.72-3.12c1.91,0,2.4,1.66,2.4,2.72c0,0.22-0.01,0.37-0.04,0.49H779.04z M782.13,284.53
		c0.01-0.66-0.28-1.7-1.46-1.7c-1.08,0-1.54,0.97-1.62,1.7H782.13z"/>
	<path d="M788.54,286.61c0,0.5,0.02,0.99,0.08,1.39h-0.95l-0.08-0.73h-0.04c-0.32,0.46-0.95,0.86-1.78,0.86
		c-1.17,0-1.77-0.83-1.77-1.67c0-1.4,1.25-2.17,3.49-2.16v-0.12c0-0.47-0.13-1.34-1.32-1.33c-0.55,0-1.12,0.16-1.52,0.43l-0.24-0.71
		c0.48-0.3,1.19-0.5,1.92-0.5c1.77,0,2.21,1.21,2.21,2.36V286.61z M787.52,285.04c-1.15-0.02-2.46,0.18-2.46,1.31
		c0,0.7,0.46,1.01,0.98,1.01c0.77,0,1.26-0.48,1.43-0.97c0.04-0.12,0.05-0.24,0.05-0.34V285.04z"/>
	<path d="M790.25,284.01c0-0.68-0.01-1.27-0.05-1.81h0.92l0.05,1.15h0.04c0.26-0.78,0.91-1.27,1.62-1.27c0.11,0,0.19,0.01,0.29,0.02
		v1c-0.11-0.02-0.22-0.02-0.36-0.02c-0.74,0-1.27,0.55-1.42,1.34c-0.02,0.14-0.04,0.32-0.04,0.49V288h-1.06V284.01z"/>
	<path d="M794.03,286.93c0.32,0.19,0.88,0.41,1.4,0.41c0.76,0,1.12-0.37,1.12-0.86c0-0.5-0.3-0.77-1.07-1.05
		c-1.06-0.38-1.55-0.95-1.55-1.64c0-0.94,0.77-1.7,2-1.7c0.59,0,1.1,0.16,1.42,0.36l-0.25,0.77c-0.23-0.14-0.65-0.35-1.19-0.35
		c-0.62,0-0.96,0.36-0.96,0.79c0,0.48,0.33,0.7,1.09,1c1,0.37,1.52,0.88,1.52,1.74c0,1.03-0.8,1.75-2.16,1.75
		c-0.64,0-1.22-0.17-1.63-0.41L794.03,286.93z"/>
</g>
<g>
	<path d="M499.01,285.46l-0.84,2.54h-1.08l2.76-8.08h1.25l2.76,8.08h-1.12l-0.86-2.54H499.01z M501.68,284.64l-0.8-2.33
		c-0.18-0.53-0.3-1.01-0.42-1.47h-0.02c-0.12,0.47-0.24,0.97-0.41,1.46l-0.79,2.34H501.68z"/>
	<path d="M504.98,284.01c0-0.68-0.01-1.27-0.05-1.81h0.92l0.05,1.15h0.04c0.26-0.78,0.91-1.27,1.62-1.27c0.11,0,0.19,0.01,0.29,0.02
		v1c-0.11-0.02-0.22-0.02-0.36-0.02c-0.74,0-1.27,0.55-1.42,1.34c-0.02,0.14-0.04,0.32-0.04,0.49V288h-1.06V284.01z"/>
	<path d="M514.04,285.05c0,2.15-1.5,3.08-2.89,3.08c-1.56,0-2.78-1.15-2.78-2.99c0-1.93,1.28-3.07,2.88-3.07
		C512.91,282.08,514.04,283.29,514.04,285.05z M509.44,285.11c0,1.27,0.72,2.23,1.75,2.23c1.01,0,1.76-0.95,1.76-2.25
		c0-0.98-0.49-2.22-1.74-2.22C509.98,282.87,509.44,284.02,509.44,285.11z"/>
	<path d="M520.23,286.4c0,0.61,0.01,1.14,0.05,1.6h-0.94l-0.06-0.95h-0.02c-0.26,0.47-0.89,1.08-1.92,1.08c-0.91,0-2-0.52-2-2.54
		v-3.39h1.06v3.2c0,1.1,0.35,1.86,1.3,1.86c0.71,0,1.2-0.49,1.39-0.97c0.06-0.14,0.1-0.34,0.1-0.54v-3.55h1.06V286.4z"/>
	<path d="M521.98,283.77c0-0.61-0.01-1.09-0.05-1.57h0.94l0.06,0.96h0.02c0.29-0.54,0.96-1.08,1.92-1.08c0.8,0,2.05,0.48,2.05,2.47
		V288h-1.06v-3.35c0-0.94-0.35-1.71-1.34-1.71c-0.68,0-1.22,0.49-1.42,1.08c-0.05,0.13-0.07,0.31-0.07,0.49V288h-1.06V283.77z"/>
	<path d="M533.64,279.48v7.02c0,0.52,0.02,1.1,0.05,1.5h-0.94l-0.05-1.01h-0.04c-0.31,0.65-1.01,1.14-1.96,1.14
		c-1.4,0-2.49-1.19-2.49-2.95c-0.01-1.93,1.2-3.11,2.6-3.11c0.9,0,1.49,0.42,1.75,0.88h0.02v-3.47H533.64z M532.6,284.56
		c0-0.13-0.01-0.31-0.05-0.44c-0.16-0.66-0.73-1.21-1.52-1.21c-1.09,0-1.74,0.96-1.74,2.23c0,1.17,0.59,2.15,1.72,2.15
		c0.71,0,1.35-0.48,1.55-1.26c0.04-0.14,0.05-0.29,0.05-0.46V284.56z"/>
	<path d="M542.03,286.61c0,0.5,0.02,0.99,0.08,1.39h-0.95l-0.08-0.73h-0.04c-0.32,0.46-0.95,0.86-1.77,0.86
		c-1.18,0-1.78-0.83-1.78-1.67c0-1.4,1.25-2.17,3.49-2.16v-0.12c0-0.47-0.13-1.34-1.32-1.33c-0.55,0-1.12,0.16-1.52,0.43l-0.24-0.71
		c0.48-0.3,1.19-0.5,1.92-0.5c1.78,0,2.21,1.21,2.21,2.36V286.61z M541.01,285.04c-1.15-0.02-2.46,0.18-2.46,1.31
		c0,0.7,0.46,1.01,0.98,1.01c0.77,0,1.26-0.48,1.43-0.97c0.04-0.12,0.05-0.24,0.05-0.34V285.04z"/>
	<path d="M546.28,279.48h1.06V288h-1.06V279.48z"/>
	<path d="M550.29,280.56c0,0.36-0.25,0.65-0.67,0.65c-0.38,0-0.64-0.29-0.64-0.65c0-0.36,0.26-0.66,0.66-0.66
		C550.03,279.9,550.29,280.19,550.29,280.56z M549.11,288v-5.8h1.06v5.8H549.11z"/>
	<path d="M552.03,288v-5h-0.8v-0.8h0.8v-0.28c0-0.82,0.19-1.56,0.67-2.03c0.4-0.38,0.92-0.54,1.42-0.54c0.38,0,0.7,0.08,0.9,0.17
		l-0.14,0.82c-0.16-0.07-0.36-0.13-0.67-0.13c-0.9,0-1.13,0.78-1.13,1.68v0.31h1.4v0.8h-1.4v5H552.03z"/>
	<path d="M555.86,285.29c0.02,1.43,0.92,2.02,1.99,2.02c0.76,0,1.22-0.13,1.61-0.3l0.19,0.76c-0.37,0.17-1.02,0.37-1.94,0.37
		c-1.79,0-2.85-1.19-2.85-2.94s1.03-3.12,2.72-3.12c1.91,0,2.4,1.66,2.4,2.72c0,0.22-0.01,0.37-0.04,0.49H555.86z M558.95,284.53
		c0.01-0.66-0.28-1.7-1.46-1.7c-1.08,0-1.54,0.97-1.62,1.7H558.95z"/>
	<path d="M562.55,280.8v1.39h1.51v0.8h-1.51v3.13c0,0.72,0.2,1.13,0.79,1.13c0.29,0,0.46-0.02,0.61-0.07l0.05,0.8
		c-0.2,0.07-0.53,0.14-0.94,0.14c-0.49,0-0.89-0.17-1.14-0.44c-0.29-0.32-0.41-0.84-0.41-1.52V283h-0.9v-0.8h0.9v-1.08L562.55,280.8
		z"/>
	<path d="M566.43,280.56c0,0.36-0.25,0.65-0.67,0.65c-0.38,0-0.64-0.29-0.64-0.65c0-0.36,0.26-0.66,0.66-0.66
		C566.17,279.9,566.43,280.19,566.43,280.56z M565.25,288v-5.8h1.05v5.8H565.25z"/>
	<path d="M568.06,283.77c0-0.61-0.02-1.09-0.05-1.57h0.92l0.05,0.95h0.04c0.32-0.55,0.86-1.07,1.83-1.07c0.78,0,1.38,0.48,1.63,1.16
		h0.02c0.18-0.34,0.42-0.58,0.66-0.76c0.35-0.26,0.72-0.41,1.27-0.41c0.78,0,1.92,0.5,1.92,2.52V288h-1.03v-3.27
		c0-1.13-0.42-1.79-1.26-1.79c-0.61,0-1.07,0.44-1.26,0.95c-0.05,0.16-0.08,0.34-0.08,0.53V288h-1.03v-3.48
		c0-0.92-0.41-1.58-1.21-1.58c-0.65,0-1.14,0.53-1.31,1.05c-0.06,0.14-0.08,0.34-0.08,0.52V288h-1.03V283.77z"/>
	<path d="M578.66,285.29c0.02,1.43,0.92,2.02,1.99,2.02c0.75,0,1.22-0.13,1.61-0.3l0.19,0.76c-0.37,0.17-1.02,0.37-1.94,0.37
		c-1.79,0-2.85-1.19-2.85-2.94s1.03-3.12,2.72-3.12c1.91,0,2.4,1.66,2.4,2.72c0,0.22-0.01,0.37-0.04,0.49H578.66z M581.75,284.53
		c0.01-0.66-0.28-1.7-1.46-1.7c-1.08,0-1.54,0.97-1.62,1.7H581.75z"/>
</g>
<g>
	<path d="M913.01,285.46l-0.84,2.54h-1.08l2.76-8.08h1.25l2.76,8.08h-1.12l-0.86-2.54H913.01z M915.68,284.64l-0.8-2.33
		c-0.18-0.53-0.3-1.01-0.42-1.47h-0.03c-0.12,0.47-0.24,0.97-0.41,1.46l-0.79,2.34H915.68z"/>
	<path d="M918.98,284.01c0-0.68-0.01-1.27-0.05-1.81h0.92l0.05,1.15h0.04c0.26-0.78,0.91-1.27,1.62-1.27c0.11,0,0.19,0.01,0.29,0.02
		v1c-0.11-0.02-0.22-0.02-0.36-0.02c-0.74,0-1.27,0.55-1.42,1.34c-0.02,0.14-0.04,0.32-0.04,0.49V288h-1.05V284.01z"/>
	<path d="M928.04,285.05c0,2.15-1.5,3.08-2.89,3.08c-1.56,0-2.78-1.15-2.78-2.99c0-1.93,1.28-3.07,2.88-3.07
		C926.91,282.08,928.04,283.29,928.04,285.05z M923.44,285.11c0,1.27,0.72,2.23,1.75,2.23c1.01,0,1.76-0.95,1.76-2.25
		c0-0.98-0.49-2.22-1.74-2.22C923.98,282.87,923.44,284.02,923.44,285.11z"/>
	<path d="M934.23,286.4c0,0.61,0.01,1.14,0.05,1.6h-0.94l-0.06-0.95h-0.02c-0.26,0.47-0.89,1.08-1.92,1.08c-0.91,0-2-0.52-2-2.54
		v-3.39h1.06v3.2c0,1.1,0.35,1.86,1.3,1.86c0.71,0,1.2-0.49,1.39-0.97c0.06-0.14,0.1-0.34,0.1-0.54v-3.55h1.06V286.4z"/>
	<path d="M935.98,283.77c0-0.61-0.01-1.09-0.05-1.57h0.94l0.06,0.96h0.02c0.29-0.54,0.96-1.08,1.92-1.08c0.8,0,2.05,0.48,2.05,2.47
		V288h-1.06v-3.35c0-0.94-0.35-1.71-1.34-1.71c-0.68,0-1.22,0.49-1.42,1.08c-0.05,0.13-0.07,0.31-0.07,0.49V288h-1.05V283.77z"/>
	<path d="M947.64,279.48v7.02c0,0.52,0.02,1.1,0.05,1.5h-0.94l-0.05-1.01h-0.04c-0.31,0.65-1.01,1.14-1.96,1.14
		c-1.4,0-2.49-1.19-2.49-2.95c-0.01-1.93,1.2-3.11,2.6-3.11c0.9,0,1.49,0.42,1.75,0.88h0.02v-3.47H947.64z M946.6,284.56
		c0-0.13-0.01-0.31-0.05-0.44c-0.16-0.66-0.73-1.21-1.52-1.21c-1.09,0-1.74,0.96-1.74,2.23c0,1.17,0.59,2.15,1.72,2.15
		c0.71,0,1.35-0.48,1.55-1.26c0.04-0.14,0.05-0.29,0.05-0.46V284.56z"/>
	<path d="M956.03,286.61c0,0.5,0.02,0.99,0.08,1.39h-0.95l-0.08-0.73h-0.04c-0.32,0.46-0.95,0.86-1.77,0.86
		c-1.18,0-1.78-0.83-1.78-1.67c0-1.4,1.25-2.17,3.49-2.16v-0.12c0-0.47-0.13-1.34-1.32-1.33c-0.55,0-1.12,0.16-1.52,0.43l-0.24-0.71
		c0.48-0.3,1.19-0.5,1.92-0.5c1.78,0,2.21,1.21,2.21,2.36V286.61z M955.01,285.04c-1.15-0.02-2.46,0.18-2.46,1.31
		c0,0.7,0.46,1.01,0.98,1.01c0.77,0,1.26-0.48,1.43-0.97c0.04-0.12,0.05-0.24,0.05-0.34V285.04z"/>
	<path d="M960.28,279.48h1.06V288h-1.06V279.48z"/>
	<path d="M964.29,280.56c0,0.36-0.25,0.65-0.67,0.65c-0.38,0-0.64-0.29-0.64-0.65c0-0.36,0.26-0.66,0.66-0.66
		C964.03,279.9,964.29,280.19,964.29,280.56z M963.11,288v-5.8h1.06v5.8H963.11z"/>
	<path d="M966.03,288v-5h-0.8v-0.8h0.8v-0.28c0-0.82,0.19-1.56,0.67-2.03c0.4-0.38,0.92-0.54,1.42-0.54c0.38,0,0.7,0.08,0.9,0.17
		l-0.14,0.82c-0.16-0.07-0.36-0.13-0.67-0.13c-0.9,0-1.13,0.78-1.13,1.68v0.31h1.4v0.8h-1.4v5H966.03z"/>
	<path d="M969.86,285.29c0.02,1.43,0.92,2.02,1.99,2.02c0.76,0,1.22-0.13,1.61-0.3l0.19,0.76c-0.37,0.17-1.02,0.37-1.94,0.37
		c-1.79,0-2.85-1.19-2.85-2.94s1.03-3.12,2.72-3.12c1.91,0,2.4,1.66,2.4,2.72c0,0.22-0.01,0.37-0.04,0.49H969.86z M972.95,284.53
		c0.01-0.66-0.28-1.7-1.46-1.7c-1.08,0-1.54,0.97-1.62,1.7H972.95z"/>
	<path d="M976.55,280.8v1.39h1.51v0.8h-1.51v3.13c0,0.72,0.2,1.13,0.79,1.13c0.29,0,0.46-0.02,0.61-0.07l0.05,0.8
		c-0.2,0.07-0.53,0.14-0.94,0.14c-0.49,0-0.89-0.17-1.14-0.44c-0.29-0.32-0.41-0.84-0.41-1.52V283h-0.9v-0.8h0.9v-1.08L976.55,280.8
		z"/>
	<path d="M980.43,280.56c0,0.36-0.25,0.65-0.67,0.65c-0.38,0-0.64-0.29-0.64-0.65c0-0.36,0.26-0.66,0.66-0.66
		C980.17,279.9,980.43,280.19,980.43,280.56z M979.25,288v-5.8h1.05v5.8H979.25z"/>
	<path d="M982.06,283.77c0-0.61-0.02-1.09-0.05-1.57h0.92l0.05,0.95h0.04c0.32-0.55,0.86-1.07,1.83-1.07c0.78,0,1.38,0.48,1.63,1.16
		h0.02c0.18-0.34,0.42-0.58,0.66-0.76c0.35-0.26,0.72-0.41,1.27-0.41c0.78,0,1.92,0.5,1.92,2.52V288h-1.03v-3.27
		c0-1.13-0.42-1.79-1.26-1.79c-0.61,0-1.07,0.44-1.26,0.95c-0.05,0.16-0.08,0.34-0.08,0.53V288h-1.03v-3.48
		c0-0.92-0.41-1.58-1.21-1.58c-0.65,0-1.14,0.53-1.31,1.05c-0.06,0.14-0.08,0.34-0.08,0.52V288h-1.03V283.77z"/>
	<path d="M992.66,285.29c0.02,1.43,0.92,2.02,1.99,2.02c0.75,0,1.22-0.13,1.61-0.3l0.19,0.76c-0.37,0.17-1.02,0.37-1.94,0.37
		c-1.79,0-2.85-1.19-2.85-2.94s1.03-3.12,2.72-3.12c1.91,0,2.4,1.66,2.4,2.72c0,0.22-0.01,0.37-0.04,0.49H992.66z M995.75,284.53
		c0.01-0.66-0.28-1.7-1.46-1.7c-1.08,0-1.54,0.97-1.62,1.7H995.75z"/>
</g>
<line fill="none" stroke="#000000" x1="648" y1="63" x2="648" y2="27"/>
<g>
	<path d="M564.9,27v-0.65l0.83-0.8c1.99-1.9,2.9-2.9,2.9-4.08c0-0.79-0.37-1.52-1.54-1.52c-0.71,0-1.29,0.36-1.65,0.66l-0.34-0.74
		c0.53-0.44,1.31-0.79,2.19-0.79c1.68,0,2.39,1.15,2.39,2.27c0,1.44-1.04,2.6-2.69,4.19l-0.61,0.58v0.02h3.49V27H564.9z"/>
	<path d="M571.39,22.77c0-0.61-0.01-1.09-0.05-1.57h0.94l0.06,0.96h0.02c0.29-0.54,0.96-1.08,1.92-1.08c0.8,0,2.05,0.48,2.05,2.47
		V27h-1.06v-3.35c0-0.94-0.35-1.71-1.34-1.71c-0.68,0-1.22,0.49-1.42,1.08c-0.05,0.13-0.07,0.31-0.07,0.49V27h-1.06V22.77z"/>
	<path d="M583.05,18.48v7.02c0,0.52,0.02,1.1,0.05,1.5h-0.94l-0.05-1.01h-0.04c-0.31,0.65-1.01,1.14-1.96,1.14
		c-1.4,0-2.49-1.19-2.49-2.95c-0.01-1.93,1.2-3.11,2.6-3.11c0.9,0,1.49,0.42,1.75,0.88h0.02v-3.47H583.05z M582.01,23.56
		c0-0.13-0.01-0.31-0.05-0.44c-0.16-0.66-0.73-1.21-1.52-1.21c-1.09,0-1.74,0.96-1.74,2.23c0,1.18,0.59,2.15,1.72,2.15
		c0.71,0,1.35-0.48,1.55-1.26c0.04-0.14,0.05-0.29,0.05-0.46V23.56z"/>
	<path d="M593.56,26.64c-0.47,0.18-1.4,0.44-2.49,0.44c-1.22,0-2.23-0.31-3.02-1.07c-0.7-0.67-1.13-1.75-1.13-3.01
		c0-2.41,1.67-4.17,4.38-4.17c0.93,0,1.68,0.2,2.03,0.37l-0.26,0.85c-0.43-0.2-0.97-0.35-1.79-0.35c-1.97,0-3.25,1.22-3.25,3.25
		c0,2.05,1.22,3.26,3.12,3.26c0.68,0,1.15-0.1,1.39-0.22v-2.41h-1.63v-0.84h2.66V26.64z"/>
	<path d="M599.29,25.61c0,0.5,0.02,1,0.08,1.39h-0.95l-0.08-0.73h-0.04c-0.32,0.46-0.95,0.86-1.78,0.86c-1.17,0-1.77-0.83-1.77-1.67
		c0-1.4,1.25-2.17,3.49-2.16v-0.12c0-0.47-0.13-1.34-1.32-1.33c-0.55,0-1.12,0.16-1.52,0.43l-0.24-0.71c0.48-0.3,1.19-0.5,1.92-0.5
		c1.77,0,2.21,1.21,2.21,2.36V25.61z M598.27,24.04c-1.15-0.02-2.46,0.18-2.46,1.31c0,0.7,0.46,1.01,0.98,1.01
		c0.77,0,1.26-0.48,1.43-0.97c0.04-0.12,0.05-0.24,0.05-0.34V24.04z"/>
	<path d="M601,18.48h1.06V27H601V18.48z"/>
	<path d="M607.91,25.61c0,0.5,0.02,1,0.08,1.39h-0.95l-0.08-0.73h-0.04c-0.32,0.46-0.95,0.86-1.77,0.86c-1.17,0-1.77-0.83-1.77-1.67
		c0-1.4,1.25-2.17,3.49-2.16v-0.12c0-0.47-0.13-1.34-1.32-1.33c-0.55,0-1.12,0.16-1.52,0.43l-0.24-0.71c0.48-0.3,1.19-0.5,1.92-0.5
		c1.78,0,2.21,1.21,2.21,2.36V25.61z M606.89,24.04c-1.15-0.02-2.46,0.18-2.46,1.31c0,0.7,0.46,1.01,0.98,1.01
		c0.77,0,1.26-0.48,1.43-0.97c0.04-0.12,0.05-0.24,0.05-0.34V24.04z"/>
	<path d="M613.75,26.8c-0.28,0.13-0.89,0.34-1.67,0.34c-1.75,0-2.89-1.19-2.89-2.96c0-1.79,1.22-3.09,3.12-3.09
		c0.62,0,1.18,0.16,1.46,0.31l-0.24,0.8c-0.25-0.13-0.65-0.28-1.22-0.28c-1.33,0-2.05,1-2.05,2.19c0,1.34,0.86,2.17,2.01,2.17
		c0.6,0,1-0.14,1.3-0.28L613.75,26.8z"/>
	<path d="M616.42,19.8v1.39h1.51V22h-1.51v3.13c0,0.72,0.2,1.13,0.79,1.13c0.29,0,0.46-0.02,0.61-0.07l0.05,0.8
		c-0.21,0.07-0.53,0.14-0.94,0.14c-0.49,0-0.89-0.17-1.14-0.44c-0.29-0.32-0.41-0.84-0.41-1.52V22h-0.9v-0.8h0.9v-1.08L616.42,19.8z
		"/>
	<path d="M620.29,19.56c0,0.36-0.25,0.65-0.67,0.65c-0.38,0-0.63-0.29-0.63-0.65s0.26-0.66,0.66-0.66
		C620.03,18.9,620.29,19.19,620.29,19.56z M619.12,27v-5.8h1.06V27H619.12z"/>
	<path d="M626.06,26.8c-0.28,0.13-0.89,0.34-1.67,0.34c-1.75,0-2.89-1.19-2.89-2.96c0-1.79,1.22-3.09,3.12-3.09
		c0.62,0,1.17,0.16,1.46,0.31l-0.24,0.8c-0.25-0.13-0.65-0.28-1.22-0.28c-1.33,0-2.05,1-2.05,2.19c0,1.34,0.86,2.17,2.01,2.17
		c0.6,0,1-0.14,1.3-0.28L626.06,26.8z"/>
	<path d="M630.77,27l-2.05-8.08h1.1l0.96,4.09c0.24,1.01,0.46,2.01,0.6,2.79h0.02c0.13-0.8,0.38-1.76,0.66-2.81l1.08-4.08h1.09
		l0.98,4.1c0.23,0.96,0.44,1.92,0.56,2.77h0.02c0.17-0.89,0.39-1.79,0.65-2.79l1.07-4.08h1.07L636.3,27h-1.09l-1.02-4.21
		c-0.25-1.03-0.42-1.82-0.53-2.64h-0.02c-0.13,0.8-0.32,1.6-0.62,2.64L631.86,27H630.77z"/>
	<path d="M643.25,25.61c0,0.5,0.02,1,0.08,1.39h-0.95l-0.08-0.73h-0.04c-0.32,0.46-0.95,0.86-1.78,0.86c-1.17,0-1.77-0.83-1.77-1.67
		c0-1.4,1.25-2.17,3.49-2.16v-0.12c0-0.47-0.13-1.34-1.32-1.33c-0.55,0-1.12,0.16-1.52,0.43l-0.24-0.71c0.48-0.3,1.19-0.5,1.92-0.5
		c1.77,0,2.21,1.21,2.21,2.36V25.61z M642.23,24.04c-1.15-0.02-2.46,0.18-2.46,1.31c0,0.7,0.46,1.01,0.98,1.01
		c0.77,0,1.26-0.48,1.43-0.97c0.04-0.12,0.05-0.24,0.05-0.34V24.04z"/>
	<path d="M644.95,23.01c0-0.68-0.01-1.27-0.05-1.81h0.92l0.05,1.15h0.04c0.26-0.78,0.91-1.27,1.62-1.27c0.11,0,0.19,0.01,0.29,0.02
		v1c-0.11-0.02-0.22-0.02-0.36-0.02c-0.74,0-1.27,0.55-1.42,1.34c-0.02,0.14-0.04,0.32-0.04,0.49V27h-1.06V23.01z"/>
</g>
<line fill="none" stroke="#000000" x1="1062" y1="63" x2="1062" y2="27"/>
<g>
	<path d="M982.01,25.8c0.3,0.18,0.98,0.48,1.73,0.48c1.34,0,1.77-0.85,1.76-1.51c-0.01-1.09-1-1.56-2.01-1.56h-0.59v-0.79h0.59
		c0.77,0,1.74-0.4,1.74-1.32c0-0.62-0.4-1.18-1.37-1.18c-0.62,0-1.22,0.28-1.56,0.52l-0.29-0.77c0.42-0.3,1.21-0.6,2.05-0.6
		c1.54,0,2.23,0.91,2.23,1.86c0,0.82-0.49,1.5-1.44,1.85v0.02c0.96,0.18,1.73,0.9,1.74,1.99c0,1.25-0.98,2.34-2.84,2.34
		c-0.88,0-1.64-0.28-2.03-0.53L982.01,25.8z"/>
	<path d="M988.25,23.01c0-0.68-0.01-1.27-0.05-1.81h0.92l0.05,1.15h0.04c0.26-0.78,0.91-1.27,1.62-1.27c0.11,0,0.19,0.01,0.29,0.02
		v1c-0.11-0.02-0.22-0.02-0.36-0.02c-0.74,0-1.27,0.55-1.42,1.34c-0.02,0.14-0.04,0.32-0.04,0.49V27h-1.06V23.01z"/>
	<path d="M997.05,18.48v7.02c0,0.52,0.02,1.1,0.05,1.5h-0.94l-0.05-1.01h-0.04c-0.31,0.65-1.01,1.14-1.96,1.14
		c-1.4,0-2.49-1.19-2.49-2.95c-0.01-1.93,1.2-3.11,2.6-3.11c0.9,0,1.49,0.42,1.75,0.88h0.02v-3.47H997.05z M996.01,23.56
		c0-0.13-0.01-0.31-0.05-0.44c-0.16-0.66-0.73-1.21-1.52-1.21c-1.09,0-1.74,0.96-1.74,2.23c0,1.18,0.59,2.15,1.72,2.15
		c0.71,0,1.35-0.48,1.55-1.26c0.04-0.14,0.05-0.29,0.05-0.46V23.56z"/>
	<path d="M1007.56,26.64c-0.47,0.18-1.4,0.44-2.49,0.44c-1.22,0-2.23-0.31-3.02-1.07c-0.7-0.67-1.13-1.75-1.13-3.01
		c0-2.41,1.67-4.17,4.38-4.17c0.93,0,1.68,0.2,2.03,0.37l-0.26,0.85c-0.43-0.2-0.97-0.35-1.79-0.35c-1.97,0-3.25,1.22-3.25,3.25
		c0,2.05,1.22,3.26,3.12,3.26c0.68,0,1.15-0.1,1.39-0.22v-2.41h-1.63v-0.84h2.66V26.64z"/>
	<path d="M1013.29,25.61c0,0.5,0.02,1,0.08,1.39h-0.95l-0.08-0.73h-0.04c-0.32,0.46-0.95,0.86-1.78,0.86
		c-1.17,0-1.77-0.83-1.77-1.67c0-1.4,1.25-2.17,3.49-2.16v-0.12c0-0.47-0.13-1.34-1.32-1.33c-0.55,0-1.12,0.16-1.52,0.43l-0.24-0.71
		c0.48-0.3,1.19-0.5,1.92-0.5c1.77,0,2.21,1.21,2.21,2.36V25.61z M1012.27,24.04c-1.15-0.02-2.46,0.18-2.46,1.31
		c0,0.7,0.46,1.01,0.98,1.01c0.77,0,1.26-0.48,1.43-0.97c0.04-0.12,0.05-0.24,0.05-0.34V24.04z"/>
	<path d="M1015,18.48h1.06V27H1015V18.48z"/>
	<path d="M1021.91,25.61c0,0.5,0.02,1,0.08,1.39h-0.95l-0.08-0.73h-0.04c-0.32,0.46-0.95,0.86-1.77,0.86
		c-1.17,0-1.77-0.83-1.77-1.67c0-1.4,1.25-2.17,3.49-2.16v-0.12c0-0.47-0.13-1.34-1.32-1.33c-0.55,0-1.12,0.16-1.52,0.43l-0.24-0.71
		c0.48-0.3,1.19-0.5,1.92-0.5c1.78,0,2.21,1.21,2.21,2.36V25.61z M1020.89,24.04c-1.15-0.02-2.46,0.18-2.46,1.31
		c0,0.7,0.46,1.01,0.98,1.01c0.77,0,1.26-0.48,1.43-0.97c0.04-0.12,0.05-0.24,0.05-0.34V24.04z"/>
	<path d="M1027.75,26.8c-0.28,0.13-0.89,0.34-1.67,0.34c-1.75,0-2.89-1.19-2.89-2.96c0-1.79,1.22-3.09,3.12-3.09
		c0.62,0,1.18,0.16,1.46,0.31l-0.24,0.8c-0.25-0.13-0.65-0.28-1.22-0.28c-1.33,0-2.05,1-2.05,2.19c0,1.34,0.86,2.17,2.02,2.17
		c0.6,0,1-0.14,1.29-0.28L1027.75,26.8z"/>
	<path d="M1030.42,19.8v1.39h1.51V22h-1.51v3.13c0,0.72,0.2,1.13,0.79,1.13c0.29,0,0.46-0.02,0.61-0.07l0.05,0.8
		c-0.21,0.07-0.53,0.14-0.94,0.14c-0.49,0-0.89-0.17-1.14-0.44c-0.29-0.32-0.41-0.84-0.41-1.52V22h-0.9v-0.8h0.9v-1.08L1030.42,19.8
		z"/>
	<path d="M1034.29,19.56c0,0.36-0.25,0.65-0.67,0.65c-0.38,0-0.63-0.29-0.63-0.65s0.26-0.66,0.66-0.66
		C1034.03,18.9,1034.29,19.19,1034.29,19.56z M1033.12,27v-5.8h1.06V27H1033.12z"/>
	<path d="M1040.06,26.8c-0.28,0.13-0.89,0.34-1.67,0.34c-1.75,0-2.89-1.19-2.89-2.96c0-1.79,1.22-3.09,3.12-3.09
		c0.62,0,1.17,0.16,1.46,0.31l-0.24,0.8c-0.25-0.13-0.65-0.28-1.22-0.28c-1.33,0-2.05,1-2.05,2.19c0,1.34,0.86,2.17,2.01,2.17
		c0.6,0,1-0.14,1.3-0.28L1040.06,26.8z"/>
	<path d="M1044.77,27l-2.05-8.08h1.1l0.96,4.09c0.24,1.01,0.46,2.01,0.6,2.79h0.02c0.13-0.8,0.38-1.76,0.66-2.81l1.08-4.08h1.09
		l0.98,4.1c0.23,0.96,0.44,1.92,0.56,2.77h0.02c0.17-0.89,0.39-1.79,0.65-2.79l1.07-4.08h1.07L1050.3,27h-1.09l-1.02-4.21
		c-0.25-1.03-0.42-1.82-0.53-2.64h-0.02c-0.13,0.8-0.32,1.6-0.62,2.64l-1.15,4.21H1044.77z"/>
	<path d="M1057.25,25.61c0,0.5,0.02,1,0.08,1.39h-0.95l-0.08-0.73h-0.04c-0.32,0.46-0.95,0.86-1.78,0.86
		c-1.17,0-1.77-0.83-1.77-1.67c0-1.4,1.25-2.17,3.49-2.16v-0.12c0-0.47-0.13-1.34-1.32-1.33c-0.55,0-1.12,0.16-1.52,0.43l-0.24-0.71
		c0.48-0.3,1.19-0.5,1.92-0.5c1.77,0,2.21,1.21,2.21,2.36V25.61z M1056.23,24.04c-1.15-0.02-2.46,0.18-2.46,1.31
		c0,0.7,0.46,1.01,0.98,1.01c0.77,0,1.26-0.48,1.43-0.97c0.04-0.12,0.05-0.24,0.05-0.34V24.04z"/>
	<path d="M1058.95,23.01c0-0.68-0.01-1.27-0.05-1.81h0.92l0.05,1.15h0.04c0.26-0.78,0.91-1.27,1.62-1.27c0.11,0,0.19,0.01,0.29,0.02
		v1c-0.11-0.02-0.22-0.02-0.36-0.02c-0.74,0-1.27,0.55-1.42,1.34c-0.02,0.14-0.04,0.32-0.04,0.49V27h-1.06V23.01z"/>
</g>
<g>
</g>
<g>
</g>
<g>
</g>
<g>
</g>
<g>
</g>
<g>
</g>
</svg>
